<?xml version="1.0" encoding="UTF-8" standalone="no"?>
<!DOCTYPE svg PUBLIC "-//W3C//DTD SVG 1.1//EN" "http://www.w3.org/Graphics/SVG/1.1/DTD/svg11.dtd">
<svg width="100%" height="100%" viewBox="0 0 302 240" version="1.1" xmlns="http://www.w3.org/2000/svg" xmlns:xlink="http://www.w3.org/1999/xlink" xml:space="preserve" xmlns:serif="http://www.serif.com/" style="fill-rule:evenodd;clip-rule:evenodd;stroke-linejoin:round;stroke-miterlimit:2;">
    <g id="text" transform="matrix(1.15153,0,0,1.15153,-408.871,-324.091)">
        <g transform="matrix(1,0,0,1,-36.4094,83.8304)">
            <path d="M426.918,359.206L417.126,332.582C416.87,331.814 416.518,331.227 416.07,330.822C415.622,330.417 415.035,330.086 414.31,329.83L413.222,329.51L413.222,328.294L428.518,328.294L428.518,329.51L427.494,329.766C425.872,330.193 425.339,331.217 425.894,332.838L431.718,350.246L437.094,335.974L436.134,333.094C435.835,332.198 435.526,331.494 435.206,330.982C434.886,330.47 434.427,330.107 433.83,329.894L432.742,329.51L432.742,328.294L445.926,328.294L445.926,329.51L445.03,329.83C444.347,330.086 443.931,330.438 443.782,330.886C443.632,331.334 443.707,331.985 444.006,332.838L449.702,349.862L455.462,332.902C455.974,331.238 455.59,330.235 454.31,329.894L453.03,329.51L453.03,328.294L461.606,328.294L461.606,329.51L460.198,329.894C459.472,330.107 458.918,330.427 458.534,330.854C458.15,331.281 457.83,331.878 457.574,332.646L448.358,359.206L445.03,359.206L438.054,338.79L430.502,359.206L426.918,359.206Z" style="fill:rgb(40,54,54);fill-rule:nonzero;"/>
        </g>
        <g transform="matrix(1,0,0,1,-36.4094,83.8304)">
            <path d="M463.846,359.014L463.846,357.798L464.806,357.542C465.659,357.286 466.235,356.902 466.534,356.39C466.832,355.878 467.003,355.195 467.046,354.342L467.046,338.886C467.046,337.755 467.024,336.593 466.982,335.398C466.982,334.545 466.822,333.873 466.502,333.382C466.182,332.891 465.595,332.561 464.742,332.39L463.846,332.198L463.846,331.046L475.046,327.334L475.814,328.038L475.622,337.126L475.622,354.406C475.622,355.259 475.782,355.942 476.102,356.454C476.422,356.966 476.987,357.35 477.798,357.606L478.502,357.798L478.502,359.014L463.846,359.014Z" style="fill:rgb(40,54,54);fill-rule:nonzero;"/>
        </g>
        <g transform="matrix(1,0,0,1,-26.9316,65.6711)">
            <path d="M461.728,341.973C460.32,341.973 459.125,341.525 458.144,340.629C457.163,339.733 456.672,338.603 456.672,337.237C456.672,335.829 457.163,334.688 458.144,333.813C459.125,332.939 460.32,332.501 461.728,332.501C463.136,332.501 464.331,332.939 465.312,333.813C466.293,334.688 466.784,335.829 466.784,337.237C466.784,338.603 466.293,339.733 465.312,340.629C464.331,341.525 463.136,341.973 461.728,341.973Z" style="fill:rgb(161,210,131);"/>
        </g>
        <g transform="matrix(1,0,0,1,-36.4094,83.8304)">
            <path d="M492.39,359.91C490.342,359.91 488.496,359.686 486.854,359.238C485.211,358.79 483.643,358.161 482.15,357.35L482.15,349.798L483.878,349.798L485.798,353.446C486.608,355.025 487.536,356.198 488.582,356.966C489.627,357.734 490.96,358.118 492.582,358.118C494.587,358.118 496.187,357.681 497.382,356.806C498.576,355.931 499.174,354.747 499.174,353.254C499.174,351.889 498.726,350.779 497.83,349.926C496.934,349.073 495.334,348.283 493.03,347.558L490.214,346.662C487.696,345.894 485.702,344.731 484.23,343.174C482.758,341.617 482.022,339.665 482.022,337.318C482.022,335.483 482.512,333.809 483.494,332.294C484.475,330.779 485.904,329.574 487.782,328.678C489.659,327.782 491.942,327.334 494.63,327.334C496.379,327.334 497.99,327.537 499.462,327.942C500.934,328.347 502.374,328.913 503.782,329.638L503.398,336.486L501.734,336.486L499.75,332.838C499.067,331.473 498.374,330.523 497.67,329.99C496.966,329.457 495.888,329.19 494.438,329.19C492.902,329.19 491.547,329.585 490.374,330.374C489.2,331.163 488.614,332.262 488.614,333.67C488.614,334.993 489.104,336.07 490.086,336.902C491.067,337.734 492.646,338.513 494.822,339.238L497.574,340.07C500.688,341.051 502.907,342.353 504.23,343.974C505.552,345.595 506.214,347.537 506.214,349.798C506.214,352.827 505.008,355.27 502.598,357.126C500.187,358.982 496.784,359.91 492.39,359.91Z" style="fill:rgb(40,54,54);fill-rule:nonzero;"/>
        </g>
        <g transform="matrix(1,0,0,1,-36.4094,83.8304)">
            <path d="M508.518,373.798L508.518,372.582L509.35,372.326C510.203,372.113 510.8,371.761 511.142,371.27C511.483,370.779 511.654,370.086 511.654,369.19C511.654,367.441 511.664,365.787 511.686,364.23C511.707,362.673 511.718,361.169 511.718,359.718L511.718,338.694C511.718,337.734 511.696,336.657 511.654,335.462C511.654,334.566 511.504,333.873 511.206,333.382C510.907,332.891 510.331,332.561 509.478,332.39L508.518,332.198L508.518,331.046L518.822,327.334L519.59,327.974L520.166,330.342C523.11,328.337 526.438,327.334 530.15,327.334C533.776,327.334 536.688,328.699 538.886,331.43C541.083,334.161 542.182,338.193 542.182,343.526C542.182,348.689 540.976,352.71 538.566,355.59C536.155,358.47 532.88,359.91 528.742,359.91C527.078,359.91 525.51,359.761 524.038,359.462C522.566,359.163 521.254,358.715 520.102,358.118L520.102,360.038C520.102,361.318 520.112,362.705 520.134,364.198C520.155,365.691 520.166,367.313 520.166,369.062C520.166,370.769 520.912,371.835 522.406,372.262L523.622,372.582L523.622,373.798L508.518,373.798ZM525.734,357.35C527.995,357.35 529.776,356.337 531.078,354.31C532.379,352.283 533.03,348.774 533.03,343.782C533.03,338.833 532.411,335.366 531.174,333.382C529.936,331.398 528.187,330.406 525.926,330.406C525.115,330.406 524.24,330.534 523.302,330.79C522.363,331.046 521.36,331.473 520.294,332.07L520.294,356.262C522,356.987 523.814,357.35 525.734,357.35Z" style="fill:rgb(40,54,54);fill-rule:nonzero;"/>
        </g>
        <g transform="matrix(1,0,0,1,-36.4094,83.8304)">
            <path d="M561.446,327.334C564.134,327.334 566.438,327.889 568.358,328.998C570.278,330.107 571.76,331.633 572.806,333.574C573.851,335.515 574.374,337.745 574.374,340.262C574.374,340.817 574.352,341.339 574.31,341.83C574.267,342.321 574.182,342.779 574.054,343.206L554.79,343.206C554.832,347.601 555.654,350.758 557.254,352.678C558.854,354.598 561.19,355.558 564.262,355.558C566.395,355.558 568.123,355.206 569.446,354.502C570.768,353.798 571.984,352.806 573.094,351.526L574.118,352.486C572.838,354.833 571.099,356.657 568.902,357.958C566.704,359.259 564.091,359.91 561.062,359.91C558.032,359.91 555.366,359.27 553.062,357.99C550.758,356.71 548.955,354.865 547.654,352.454C546.352,350.043 545.702,347.153 545.702,343.782C545.702,340.283 546.459,337.318 547.974,334.886C549.488,332.454 551.451,330.587 553.862,329.286C556.272,327.985 558.8,327.334 561.446,327.334ZM561.126,329.19C559.888,329.19 558.811,329.542 557.894,330.246C556.976,330.95 556.251,332.187 555.718,333.958C555.184,335.729 554.875,338.214 554.79,341.414L566.246,341.414C566.715,337.105 566.544,333.99 565.734,332.07C564.923,330.15 563.387,329.19 561.126,329.19Z" style="fill:rgb(40,54,54);fill-rule:nonzero;"/>
        </g>
        <g transform="matrix(1,0,0,1,-36.4094,83.8304)">
            <path d="M577.638,359.014L577.638,357.798L578.598,357.478C579.451,357.265 580.038,356.902 580.358,356.39C580.678,355.878 580.838,355.195 580.838,354.342L580.838,335.59C580.795,334.651 580.624,333.937 580.326,333.446C580.027,332.955 579.451,332.625 578.598,332.454L577.638,332.198L577.638,331.046L588.07,327.334L588.838,328.038L589.414,333.67L589.414,334.118C590.054,332.923 590.864,331.814 591.846,330.79C592.827,329.766 593.894,328.934 595.046,328.294C596.198,327.654 597.35,327.334 598.502,327.334C600.123,327.334 601.339,327.761 602.15,328.614C602.96,329.467 603.366,330.555 603.366,331.878C603.366,333.329 602.96,334.427 602.15,335.174C601.339,335.921 600.358,336.294 599.206,336.294C597.499,336.294 596.027,335.526 594.79,333.99L594.662,333.862C594.235,333.35 593.755,333.062 593.222,332.998C592.688,332.934 592.166,333.201 591.654,333.798C591.227,334.225 590.832,334.726 590.47,335.302C590.107,335.878 589.776,336.55 589.478,337.318L589.478,354.086C589.478,354.897 589.648,355.569 589.99,356.102C590.331,356.635 590.907,357.009 591.718,357.222L593.638,357.798L593.638,359.014L577.638,359.014Z" style="fill:rgb(40,54,54);fill-rule:nonzero;"/>
        </g>
        <g transform="matrix(1,0,0,1,-36.4094,83.8304)">
            <path d="M615.91,359.91C613.862,359.91 612.016,359.686 610.374,359.238C608.731,358.79 607.163,358.161 605.67,357.35L605.67,349.798L607.398,349.798L609.318,353.446C610.128,355.025 611.056,356.198 612.102,356.966C613.147,357.734 614.48,358.118 616.102,358.118C618.107,358.118 619.707,357.681 620.902,356.806C622.096,355.931 622.694,354.747 622.694,353.254C622.694,351.889 622.246,350.779 621.35,349.926C620.454,349.073 618.854,348.283 616.55,347.558L613.734,346.662C611.216,345.894 609.222,344.731 607.75,343.174C606.278,341.617 605.542,339.665 605.542,337.318C605.542,335.483 606.032,333.809 607.014,332.294C607.995,330.779 609.424,329.574 611.302,328.678C613.179,327.782 615.462,327.334 618.15,327.334C619.899,327.334 621.51,327.537 622.982,327.942C624.454,328.347 625.894,328.913 627.302,329.638L626.918,336.486L625.254,336.486L623.27,332.838C622.587,331.473 621.894,330.523 621.19,329.99C620.486,329.457 619.408,329.19 617.958,329.19C616.422,329.19 615.067,329.585 613.894,330.374C612.72,331.163 612.134,332.262 612.134,333.67C612.134,334.993 612.624,336.07 613.606,336.902C614.587,337.734 616.166,338.513 618.342,339.238L621.094,340.07C624.208,341.051 626.427,342.353 627.75,343.974C629.072,345.595 629.734,347.537 629.734,349.798C629.734,352.827 628.528,355.27 626.118,357.126C623.707,358.982 620.304,359.91 615.91,359.91Z" style="fill:rgb(40,54,54);fill-rule:nonzero;"/>
        </g>
    </g>
    <g transform="matrix(0.959663,0,0,0.959663,97.8801,19.5404)">
        <g transform="matrix(1.05242,0,0,1.06974,8.21592,1.15189)">
            <g opacity="0.5">
                <g transform="matrix(7.28778e-17,1.19019,-1.48383,9.08585e-17,92.4033,46.21)">
                    <path d="M17.981,24.02L17.981,23.899C17.981,22.245 18.787,20.658 20.222,19.488C21.657,18.318 23.603,17.661 25.632,17.661L35.186,17.661C37.215,17.661 39.161,18.318 40.596,19.488C42.031,20.658 42.837,22.245 42.837,23.899L42.837,44.941C42.837,46.595 42.031,48.182 40.596,49.352C39.161,50.522 37.215,51.179 35.186,51.179L25.632,51.179C23.603,51.179 21.657,50.522 20.222,49.352C18.787,48.182 17.981,46.595 17.981,44.941L17.981,42.349L22.925,40.188L22.925,44.941C22.925,45.526 23.21,46.088 23.718,46.502C24.226,46.916 24.914,47.148 25.632,47.148L35.186,47.148C35.904,47.148 36.592,46.916 37.1,46.502C37.608,46.088 37.893,45.526 37.893,44.941L37.893,23.899C37.893,23.314 37.608,22.752 37.1,22.338C36.592,21.925 35.904,21.692 35.186,21.692L25.632,21.692C24.914,21.692 24.226,21.925 23.718,22.338C23.21,22.752 22.925,23.314 22.925,23.899L22.925,27.06L17.981,24.02ZM22.925,32.577L22.925,35.195L17.981,37.356L17.981,29.538L22.925,32.577Z" style="fill:rgb(161,210,131);"/>
                </g>
                <g transform="matrix(1.19619,0,0,1.72297,-21.1186,-45.2462)">
                    <path d="M75.963,41.131L75.963,36.147C75.963,34.856 76.714,33.618 78.05,32.705C79.387,31.793 81.2,31.28 83.09,31.28L88.877,31.28C90.767,31.28 92.58,31.793 93.916,32.705C95.253,33.618 96.004,34.856 96.004,36.147L96.004,50.84C96.004,52.131 95.253,53.369 93.916,54.282C92.58,55.195 90.767,55.708 88.877,55.708L83.09,55.708C81.2,55.708 79.387,55.195 78.05,54.282C77.944,54.209 77.841,54.134 77.742,54.057L80.999,51.107C81.078,51.393 81.281,51.658 81.586,51.867C81.985,52.139 82.526,52.292 83.09,52.292L88.877,52.292C89.441,52.292 89.982,52.139 90.381,51.867C90.78,51.595 91.004,51.225 91.004,50.84L91.004,36.147C91.004,35.762 90.78,35.393 90.381,35.12C89.982,34.848 89.441,34.695 88.877,34.695L83.09,34.695C82.526,34.695 81.985,34.848 81.586,35.12C81.187,35.393 80.963,35.762 80.963,36.147L80.963,41.372L75.963,41.131ZM75.963,49.47L75.963,44.891L80.763,45.122L75.963,49.47Z" style="fill:rgb(161,210,131);"/>
                </g>
                <g transform="matrix(1.36695,0,0,1.36695,-31.6804,-22.3432)">
                    <path d="M36.861,51.232C36.509,51.287 36.149,51.316 35.781,51.316L25.037,51.316C21.297,51.316 18.265,48.333 18.265,44.654L18.265,24.186C18.265,20.507 21.297,17.524 25.037,17.524L35.781,17.524C39.521,17.524 42.553,20.507 42.553,24.186L42.553,32.893L38.177,32.589L38.177,24.186C38.177,22.884 37.104,21.829 35.781,21.829L25.037,21.829C23.713,21.829 22.641,22.884 22.641,24.186L22.641,44.654C22.641,45.956 23.713,47.011 25.037,47.011L34.561,47.011L36.861,51.232ZM42.553,37.632L42.553,44.654C42.553,46.264 41.972,47.74 41.006,48.892L38.177,43.701L38.177,37.329L42.553,37.632Z" style="fill:rgb(161,210,131);"/>
                </g>
            </g>
        </g>
        <g transform="matrix(1.35033,0,0,1.37255,-19.3371,-27.2814)">
            <path d="M28.826,43.792C28.594,43.835 28.355,43.857 28.111,43.857C25.966,43.857 24.225,42.116 24.225,39.972C24.225,37.828 25.966,36.087 28.111,36.087C29.93,36.087 31.46,37.341 31.881,39.031L80.502,42.404C81.078,40.979 82.476,39.972 84.106,39.972C86.251,39.972 87.992,41.713 87.992,43.857C87.992,46.002 86.251,47.743 84.106,47.743C83.652,47.743 83.216,47.664 82.81,47.521L55.817,82.736C56.249,83.362 56.502,84.121 56.502,84.938C56.502,87.083 54.761,88.824 52.616,88.824C50.472,88.824 48.731,87.083 48.731,84.938C48.731,83.905 49.135,82.965 49.795,82.268L28.826,43.792ZM80.336,44.799L31.715,41.425C31.531,41.88 31.264,42.292 30.932,42.642L51.901,81.119C52.133,81.076 52.372,81.053 52.616,81.053C53.071,81.053 53.507,81.131 53.913,81.275L80.906,46.06C80.646,45.682 80.45,45.256 80.336,44.799Z" style="fill:rgb(161,210,131);"/>
        </g>
    </g>
    <g transform="matrix(1.59507,0,0,1.59507,-104.481,-109.656)">
        <g transform="matrix(16.7182,0,0,16.7182,237.993,203.915)">
        </g>
        <text x="169.031px" y="203.915px" style="font-family:'NunitoSans-12ptExtraLight', 'Nunito Sans';font-weight:200;font-size:16.718px;fill:rgb(40,53,53);">C<tspan x="180.433px " y="203.915px ">o</tspan>nnect</text>
    </g>
</svg>
